<?xml version="1.0" standalone="no"?>
<!DOCTYPE svg PUBLIC "-//W3C//DTD SVG 1.1//EN" "http://www.w3.org/Graphics/SVG/1.1/DTD/svg11.dtd" >
<!--
2013-9-30: Created.
-->
<svg>
<metadata>
Created by iconfont
</metadata>
<defs>

<font id="iconfont" horiz-adv-x="1024" >
  <font-face
    font-family="iconfont"
    font-weight="500"
    font-stretch="normal"
    units-per-em="1024"
    ascent="896"
    descent="-128"
  />
    <missing-glyph />
    
    <glyph glyph-name="dianjianxiangqing" unicode="&#59678;" d="M739.328 624.64V680.96c0 5.12-4.096 9.216-9.216 9.216h-450.56c-5.12 0-9.216-4.096-9.216-9.216v-56.32c0-5.12 4.096-9.216 9.216-9.216h450.048c5.12-0.512 9.728 4.096 9.728 9.216zM279.552 521.216c-5.12 0-9.216-4.096-9.216-9.216v-56.32c0-5.12 4.096-9.216 9.216-9.216h215.552c5.12 0 9.216 4.096 9.216 9.216V512c0 5.12-4.096 9.216-9.216 9.216H279.552zM495.104-15.36H176.64V809.472h656.384v-347.136c0-5.12 4.096-9.216 9.216-9.216h65.536c5.12 0 9.216 4.096 9.216 9.216v394.24c0 20.992-16.896 37.376-37.376 37.376H129.536C108.544 893.952 92.16 877.056 92.16 856.576v-919.04c0-20.992 16.896-37.376 37.376-37.376h365.568c5.12 0 9.216 4.096 9.216 9.216v65.536c0.512 5.632-3.584 9.728-9.216 9.728zM834.56 102.4c19.968 30.72 32.256 67.584 32.256 107.008 0 108.544-89.088 197.632-197.632 197.632s-197.632-89.088-197.632-197.632c0-108.544 89.088-197.632 197.632-197.632 40.96 0 78.848 12.288 110.592 33.792l111.616-111.616L947.2-10.24l-112.64 112.64z m-165.376-11.264c-65.536 0-118.784 53.248-118.784 118.784 0 65.536 53.248 118.784 118.784 118.784 65.536 0 118.784-53.248 118.784-118.784s-53.76-118.784-118.784-118.784z"  horiz-adv-x="1024" />

    
    <glyph glyph-name="statistics" unicode="&#58949;" d="M185.07776-22.82624l87.77728 0c11.30496 0 20.48 9.15456 20.48 20.48l0 149.79072c0 11.32544-9.17504 20.48-20.48 20.48L185.07776 167.92448c-11.30496 0-20.48-9.15456-20.48-20.48l0-149.79072C164.59776-13.6512 173.7728-22.82624 185.07776-22.82624zM205.55776 126.98496l46.81728 0 0-108.83072-46.81728 0L205.55776 126.98496zM448.38912-22.82624c11.30496 0 20.48 9.15456 20.48 20.48l0 422.7072c0 11.32544-9.17504 20.48-20.48 20.48l-87.77728 0c-11.30496 0-20.48-9.15456-20.48-20.48l0-422.7072c0-11.32544 9.17504-20.48 20.48-20.48L448.38912-22.82624zM381.09184 399.88096l46.81728 0 0-381.7472-46.81728 0L381.09184 399.88096zM623.9232-22.82624c11.30496 0 20.48 9.15456 20.48 20.48L644.4032 280.3392c0 11.32544-9.17504 20.48-20.48 20.48L536.1664 300.8192c-11.30496 0-20.48-9.15456-20.48-20.48l0-282.68544c0-11.32544 9.17504-20.48 20.48-20.48L623.9232-22.82624zM556.6464 259.8592l46.81728 0 0-241.72544L556.6464 18.13376 556.6464 259.8592zM691.22048 612.05376l0-614.4c0-11.32544 9.17504-20.48 20.48-20.48l87.77728 0c11.30496 0 20.48 9.15456 20.48 20.48l0 614.4c0 11.32544-9.17504 20.48-20.48 20.48l-87.77728 0C700.39552 632.53376 691.22048 623.3792 691.22048 612.05376zM732.18048 591.57376l46.81728 0 0-573.44-46.81728 0L732.18048 591.57376z"  horiz-adv-x="1024" />

    
    <glyph glyph-name="zhanshi-copy" unicode="&#58929;" d="M512 823.309c-242.563 0-439.309-196.747-439.309-439.309s196.747-439.309 439.309-439.309 439.309 196.747 439.309 439.309-196.747 439.309-439.309 439.309zM517.492 219.257c-106.994 0-198.377 65.984-236.215 159.248 37.84 93.354 129.218 159.248 236.215 159.248s198.377-65.984 236.215-159.248c-37.84-93.354-129.218-159.248-236.215-159.248zM517.492 251.005c88.891 0 165.428 52.17 201.206 127.502-35.867 75.335-112.23 127.502-201.206 127.502s-165.428-52.17-201.206-127.502c35.776-75.335 112.317-127.502 201.206-127.502zM517.492 463.366c46.848 0 84.859-38.010 84.859-84.859s-38.010-84.859-84.859-84.859-84.859 38.010-84.859 84.859 38.010 84.859 84.859 84.859zM517.492 325.483c29.343 0 53.026 23.682 53.026 53.026s-23.854 53.026-53.026 53.026c-29.343 0-53.026-23.682-53.026-53.026s23.682-53.026 53.026-53.026z"  horiz-adv-x="1024" />

    
    <glyph glyph-name="shouye1" unicode="&#58919;" d="M900.608 384.125585 900.608-108.572981 631.875623-108.572981 631.875623 294.506264 363.143245 294.506264 363.143245-108.572981 94.410868-108.572981 94.410868 384.125585 4.830189 384.125585 497.509434 876.766189 676.661132 697.60483 676.661132 831.971019 855.822491 831.971019 855.822491 518.453132 990.188679 384.125585 900.608 384.125585ZM587.177057-108.756528 407.80317-108.756528 407.80317 249.60483 587.177057 249.60483 587.177057-108.756528Z"  horiz-adv-x="1024" />

    
    <glyph glyph-name="tuozhan" unicode="&#58933;" d="M965.40416 553.23392c-19.50976 52.24704-47.744 100.41472-83.92064 143.16288-18.26688 21.5872-50.57536 24.27392-72.15872 6.0096-21.58464-18.26688-24.2752-50.5728-6.00832-72.15872C861.4336 561.57184 893.44 474.11968 893.44 384c0-210.32576-171.11424-381.44-381.44-381.44-210.32704 0-381.44 171.11424-381.44 381.44 0 210.32704 171.11296 381.44 381.44 381.44 60.48896 0 118.30784-13.72672 171.85152-40.8 25.2288-12.75648 56.03328-2.64704 68.7936 22.58816 12.76032 25.23392 2.64576 56.03456-22.58816 68.7936C662.05312 850.4064 588.68992 867.84 512 867.84c-65.29536 0-128.66432-12.8-188.34688-38.04416-57.62176-24.37248-109.36064-59.2512-153.7792-103.66976-44.41856-44.41856-79.29856-96.15744-103.66976-153.77792C40.96 512.6656 28.16 449.29536 28.16 384c0-65.29536 12.8-128.6656 38.04416-188.34688 24.37248-57.62176 59.2512-109.36064 103.66976-153.7792s96.15744-79.29856 153.7792-103.66976C383.33568-87.04 446.70464-99.84 512-99.84c65.29536 0 128.6656 12.8 188.34816 38.04416 57.62176 24.3712 109.36064 59.2512 153.77792 103.66976 44.41856 44.41856 79.29856 96.15744 103.66976 153.7792C983.04 255.3344 995.84 318.70464 995.84 384 995.84 442.20672 985.6 499.14496 965.40416 553.23392zM607.61344 430.51776c8.31488 6.70464 4.8192 24.4864-2.92096 31.0272-55.98336 47.4176-111.97952 94.83904-167.96672 142.25408-39.54688-0.48128-79.10016-1.0624-118.6496-1.60128-19.24864-0.25344-10.144-17.2672-0.71424-25.15584 46.27456-38.848 92.55168-77.69856 138.8288-116.54784-24.0512-17.64096-48.1088-35.2768-72.15104-52.91136-12.52992-9.17248-1.8624-34.99648 7.54304-42.68288 92.30976-75.45216 184.608-150.9376 276.91392-226.40768l109.69088 0c-3.17184 13.47328-1.70624 31.03488-12.7168 39.94368-78.32576 63.35104-156.64896 126.70592-234.97472 190.0544C556.20224 389.1712 581.90336 409.8496 607.61344 430.51776zM728.6528 573.72288c0 44.9408-34.85824 81.38496-77.84576 81.38496-42.99008 0-77.84832-36.44288-77.84832-81.38496 0-44.9408 34.85824-81.38496 77.84832-81.38496C693.79328 492.3392 728.6528 528.78208 728.6528 573.72288zM263.34336 426.87616c-36.5632-1.17888-73.12896-2.36288-109.69216-3.5392 0.9408-8.54016-0.07808-28.8 6.34368-34.18624 58.8608-49.14048 117.7216-98.28864 176.57856-147.43424 6.68928-5.57312 24.50432-9.7536 32.17664-4.64384 17.1008 11.39456 34.2016 22.80064 51.3024 34.19904 4.14208 2.76352 8.33792 17.54112 4.25216 20.83456-48.34432 39.02592-96.69248 78.05568-145.0368 117.07904C273.95712 415.0848 268.65024 420.98176 263.34336 426.87616z"  horiz-adv-x="1024" />

    
    <glyph glyph-name="kaitibaogao" unicode="&#58886;" d="M835 715.1c0 45.6-37.7 82.8-84.3 82.8H203.1c-46.5 0-84.3-37-84.3-82.8v-662.2c0-45.6 37.7-82.8 84.3-82.8h232c11.4 0 20.7 9.6 20.7 20.7 0 11.4-9.6 20.7-20.7 20.7h-232c-23.1-0.2-41.9 18.3-42.1 41.4V715.1c0 22.8 18.9 41.4 42.1 41.4h547.6c23.2 0 42.1-18.6 42.1-41.4v-268.9c0-11.5 8.9-20.8 21.1-20.8 11.5 0.1 20.8 9.3 21 20.8V715.1h0.1zM634.2-5.3l258.6 254.8c7.9 7.7 12.4 18.3 12.4 29.3s-4.5 21.6-12.4 29.3l-55.9 55c-16.6 16.2-43.1 16.2-59.7 0L519 108.5c-12.2-12-21-33.1-21-50.2v-42.8c0-22.9 18.8-41.6 42.2-41.6h43.2c18.8 0.7 36.9 8.1 50.8 20.8zM604.4 24c-6-4.9-13.4-7.9-21.1-8.6h-43.2v43c0 6.1 4.4 16.7 8.7 21L807.1 334v-0.1l55.9-55c0.1-0.1 0.1-0.1 0-0.2L604.4 24zM266.3 321.9c0 11.4 9.6 20.7 20.9 20.7h168.7c11.6 0 21-9.2 21-20.7 0-11.4-9.6-20.7-21-20.7H287.3c-5.5 0-10.8 2.1-14.8 6-3.9 3.9-6.1 9.2-6.2 14.7z m0 124.2c0 11.4 9.4 20.7 21.2 20.7H561c11.7 0 21.2-9.2 21.2-20.7 0-11.4-9.5-20.7-21.2-20.7H287.5c-5.6-0.1-10.9 2.1-14.9 5.9-4 3.9-6.3 9.2-6.3 14.8z m0 124.1c0 11.4 9.4 20.7 20.9 20.7h337.3c11.6 0 20.9-9.2 20.9-20.7 0-11.4-9.4-20.7-20.9-20.7H287.2c-5.5 0-10.8 2.1-14.7 6-4 3.9-6.2 9.2-6.2 14.7z"  horiz-adv-x="1024" />

    
    <glyph glyph-name="pinggu" unicode="&#58915;" d="M960 620.8v6.4c-44.8 44.8-108.8 32-153.6-12.8L473.6 275.2c-6.4 0-6.4-6.4-6.4-12.8L435.2 128c-6.4-12.8 0-19.2 6.4-25.6 6.4-6.4 32 0 32 0l140.8 32c6.4 0 12.8 6.4 19.2 6.4L960 473.6c44.8 44.8 44.8 102.4 0 147.2zM627.2 83.2l-204.8-44.8c-12.8 0-25.6 6.4-32 19.2-6.4 12.8-12.8 25.6-6.4 32l44.8 204.8c0 6.4 6.4 19.2 12.8 19.2l403.2 409.6 12.8 12.8v6.4c0 70.4-57.6 121.6-121.6 121.6H147.2C76.8 864 25.6 806.4 25.6 742.4v-723.2c0-70.4 57.6-121.6 121.6-121.6h576c70.4 0 121.6 57.6 121.6 121.6V288l-192-192c0-6.4-12.8-12.8-25.6-12.8zM300.8 524.8L217.6 448c-12.8-12.8-32-12.8-44.8 0-12.8 12.8-12.8 32 0 44.8l102.4 102.4c12.8 12.8 32 12.8 44.8 0L396.8 512l185.6 185.6c12.8 12.8 32 12.8 38.4-6.4 12.8-12.8 12.8-32 6.4-38.4L416 448c-6.4-6.4-12.8-6.4-19.2-6.4-6.4 0-19.2 0-25.6 6.4L300.8 524.8z"  horiz-adv-x="1024" />

    
    <glyph glyph-name="rizhi" unicode="&#58882;" d="M140.88 624.809c0 51.241 41.54 92.779 92.779 92.779h556.813c51.24 0 92.779-41.538 92.779-92.779v-556.813c0-51.245-41.54-92.778-92.779-92.778H233.66c-51.24 0-92.779 41.533-92.779 92.778V624.809z m231.994-139.214h-92.801v-92.794h92.801v92.794z m0-231.993h-92.801v-92.796h92.801v92.796z m371.185 185.597c0 25.625-20.766 46.396-46.402 46.396H512.066c-25.625 0-46.397-20.766-46.397-46.396 0-25.626 20.766-46.398 46.397-46.398h185.591c25.625 0 46.402 20.766 46.402 46.398m0-231.993c0 25.625-20.766 46.396-46.402 46.396H512.066c-25.625 0-46.397-20.766-46.397-46.396 0-25.626 20.766-46.398 46.397-46.398h185.591c25.625 0 46.402 20.766 46.402 46.398m0 510.383h-46.398v-92.8h46.398v92.8z m-417.589 0h-46.398v-92.8h46.398v92.8z m371.193-46.397H326.47v-46.403h371.192v46.403zM326.47 810.384h371.185v-139.192H326.47z"  horiz-adv-x="1024" />

    
    <glyph glyph-name="yonghuguanli" unicode="&#58899;" d="M337.736 883.727a191.642 191.642 0 0 0 45.404-5.478 223.585 223.585 0 0 0 42.48-14.725 192.067 192.067 0 0 0 35.349-21.048 127.478 127.478 0 0 0 23.997-23.578 185.83 185.83 0 0 0 30.162-59.315 436.137 436.137 0 0 0 6.585-25.308c-24.274-9.8-30.254-14.92-46.73-26.686-13.743-12.651-22.503-20.715-33.731-38.303-8.453-10.572-20.132-36.812-24.97-55.552-2.176-8.268-9.887-39.818-11.357-58.05-1.044-8.97-4.29-31.365-3.24-63.949-4.562-6.042-7.66-11.382-10.379-17.674-2.283-6.718-3.174-12.17-4.219-20.209-0.855-9.856 0.436-13.896 3.569-25.943 4.065-12.38 3.487-10.982 9.405-21.893 8.571-12.744 15.58-15.18 21.407-17.674 2.54-9.145 7.783-26.916 7.783-26.916s4.864-12.037 8.755-21.463c5.668-12.124 11.028-16.41 11.028-16.41s13.005-11.77 24.643-23.152c3.369-4.05 12.237-13.998 12.646-30.715 1.296-13.184 0.973-10.952 0.973-24.423 0.051-10.547-1.004-11.847-4.219-21.048-3.2-6.79-5.489-12.38-12.646-20.203-5.965-6.738-13.44-13.63-25.298-21.049-10.425-6.968-25.467-15.606-48.973-21.893-18.33-4.71-31.8-9.564-53.51-17.25-25.251-10.859-27.217-13.147-41.563-23.11-26.22-20.875-27.039-52.358-26.865-50.377s-2.78-19.01-3.62-27.038a1818.803 1818.803 0 0 0-49.305 3.83 2403.261 2403.261 0 0 0-64.538 6.748 1468.201 1468.201 0 0 0-58.373 7.977c-17.51 2.79-32.108 5.611-44.431 8.432a58.373 58.373 0 0 0-22.703 8.433 74.066 74.066 0 0 0-12.323 41.221 333.732 333.732 0 0 0 3.568 89.216 70.912 70.912 0 0 0 23.347 47.544 152.146 152.146 0 0 0 45.077 25.943 585.83 585.83 0 0 0 53.51 17.25 165.676 165.676 0 0 1 48.972 21.893A115.773 115.773 0 0 1 218.7 342.83a69.059 69.059 0 0 1 12.646 20.204 52.188 52.188 0 0 1 4.22 21.048 344.525 344.525 0 0 1-0.974 24.422 47.186 47.186 0 0 1-12.646 30.715 436.51 436.51 0 0 1-24.643 23.153 51.907 51.907 0 0 0-11.028 16.41 1569.659 1569.659 0 0 0-8.755 21.462 843.407 843.407 0 0 0-7.783 26.916 35.282 35.282 0 0 0-11.023 5.904 66.012 66.012 0 0 0-10.378 11.77 70.43 70.43 0 0 0-9.406 21.894 59.013 59.013 0 0 0-3.568 25.943 81.92 81.92 0 0 0 4.218 20.208 55.9 55.9 0 0 0 10.379 17.675 421.75 421.75 0 0 0 3.24 63.948 392.689 392.689 0 0 0 11.357 58.051 181.018 181.018 0 0 0 24.97 55.552 155.674 155.674 0 0 0 33.73 38.303 168.156 168.156 0 0 0 37.945 23.152 157.69 157.69 0 0 0 38.917 11.351 248.888 248.888 0 0 0 37.622 2.95v-0.134z m0 0M677.78 725.719a191.642 191.642 0 0 0 45.405-5.478 223.585 223.585 0 0 0 42.48-14.725 192.067 192.067 0 0 0 35.349-21.049 127.478 127.478 0 0 0 23.997-23.577 185.83 185.83 0 0 0 30.162-59.316 433.797 433.797 0 0 0 13.297-61.844 527.555 527.555 0 0 0 4.214-68.101 32.087 32.087 0 0 0 8.76-10.926 64.63 64.63 0 0 0 4.864-15.145 73.106 73.106 0 0 0 0.65-22.702 92.77 92.77 0 0 0-6.81-28.18 58.598 58.598 0 0 0-11.673-16.41 38.129 38.129 0 0 0-14.92-9.242 839.552 839.552 0 0 0-7.782-26.916c-2.924-7.296-5.842-14.433-9.083-21.463a58.44 58.44 0 0 0-11.679-16.41 820.147 820.147 0 0 1-24.642-21.468 52.23 52.23 0 0 1-12.647-29.87 113.009 113.009 0 0 1-1.623-25.65 77.911 77.911 0 0 1 6.81-25.95 81.541 81.541 0 0 1 18.16-24.805 114.504 114.504 0 0 1 34.704-21.049 362.742 362.742 0 0 1 43.13-15.145 467.159 467.159 0 0 0 45.405-15.57 161.495 161.495 0 0 0 39.24-21.893 70.979 70.979 0 0 0 24.325-35.67 188.61 188.61 0 0 0 5.836-33.24 408.736 408.736 0 0 0 1.946-39.982 232.243 232.243 0 0 0-2.918-37.878 75.254 75.254 0 0 0-8.105-26.916 46.536 46.536 0 0 0-22.702-11.776 439.972 439.972 0 0 0-45.722-11.35c-18.488-3.636-38.59-6.872-61.297-9.729a1752.586 1752.586 0 0 0-67.45-7.168 2052.454 2052.454 0 0 0-65.51-4.638c-20.757-1.132-38.918-1.685-54.16-1.685-15.243 0-33.08 0.553-53.51 1.685-20.433 1.136-41.19 2.662-62.914 4.638a2403.261 2403.261 0 0 0-64.538 6.749 1468.201 1468.201 0 0 0-58.373 7.977c-17.51 2.79-32.107 5.611-44.431 8.432a58.373 58.373 0 0 0-22.702 8.433 74.066 74.066 0 0 0-12.324 41.22 333.732 333.732 0 0 0 3.569 89.217 70.912 70.912 0 0 0 23.347 47.544 152.146 152.146 0 0 0 45.076 25.943 585.83 585.83 0 0 0 53.51 17.25 165.676 165.676 0 0 1 48.972 21.893 115.773 115.773 0 0 1 25.298 21.048 69.059 69.059 0 0 1 12.647 20.204 52.188 52.188 0 0 1 4.218 21.048 344.525 344.525 0 0 1-0.972 24.422 47.186 47.186 0 0 1-12.647 30.715 436.51 436.51 0 0 1-24.642 23.153 51.907 51.907 0 0 0-11.029 16.41 1569.659 1569.659 0 0 0-8.755 21.462 843.407 843.407 0 0 0-7.782 26.916 35.282 35.282 0 0 0-11.024 5.904 66.012 66.012 0 0 0-10.378 11.77 70.43 70.43 0 0 0-9.405 21.894 59.013 59.013 0 0 0-3.569 25.943 81.92 81.92 0 0 0 4.219 20.208 55.9 55.9 0 0 0 10.378 17.675 421.75 421.75 0 0 0 3.241 63.948 392.689 392.689 0 0 0 11.356 58.05 181.018 181.018 0 0 0 24.97 55.553 155.674 155.674 0 0 0 33.731 38.303 168.156 168.156 0 0 0 37.944 23.152 157.69 157.69 0 0 0 38.917 11.351 248.888 248.888 0 0 0 37.622 2.95v-0.144z m0 0"  horiz-adv-x="1024" />

    
    <glyph glyph-name="xitongmokuai" unicode="&#58888;" d="M325.365629 295.026516H97.660887C43.710607 295.026516 0 251.315909 0 197.365629v-227.76874C0-84.289393 43.710607-128 97.660887-128h227.76874c53.886282 0 97.660887 43.710607 97.660887 97.660887v227.76874A97.788883 97.788883 0 0 1 325.365629 295.026516z m0 520.559407H97.660887C43.710607 815.585923 0 771.875316 0 717.989034V490.220294c0-53.886282 43.710607-97.660887 97.660887-97.660887h227.76874c53.886282 0 97.660887 43.710607 97.660887 97.660887V717.989034a97.788883 97.788883 0 0 1-97.724885 97.596889z m520.559407-520.559407H618.220294c-53.886282 0-97.660887-43.710607-97.660887-97.660887v-227.76874c0-53.886282 43.710607-97.596889 97.660887-97.596889h227.76874c53.886282 0 97.660887 43.710607 97.660887 97.660887v227.76874a97.724885 97.724885 0 0 1-97.724885 97.596889z m146.427333 406.643038L829.669554 864.352369a82.685364 82.685364 0 0 1-130.107853 0L536.878887 701.669554a82.685364 82.685364 0 0 1 0-130.107853l162.682814-162.682814c33.918919-42.174656 96.188934-42.174656 130.107853 0l162.682815 162.682814a82.685364 82.685364 0 0 1 0 130.107853z m0 0"  horiz-adv-x="1024" />

    
    <glyph glyph-name="dabian" unicode="&#58881;" d="M542.2 616.3l137.1-159.9c18.1-21.1 22.6-50.5 15.5-58.3l-2.8-3c-7-7.8-38.4-8.3-61.2 7.4L457.3 522.1c-22.8 15.8-28 43.4-11.5 61.7l33.7 37.5c16.6 18.3 44.6 16.1 62.7-5zM404.5 257.3l263.8 273.2c8.8 9.1 23.4 9.4 32.5 0.6 9.1-8.8 9.4-23.4 0.6-32.5L437.5 225.4c-8.8-9.1-23.4-9.4-32.5-0.6-9.1 8.8-9.4 23.4-0.5 32.5zM379.5 518C293.2 518 223 588.2 223 674.5c0 30.6 8.8 60.3 25.6 85.8 7 10.6 21.2 13.6 31.8 6.6S294 745.7 287 735c-11.8-18-18-38.9-18-60.5 0-60.9 49.6-110.5 110.5-110.5S490 613.6 490 674.5c0 56.1-42 103.3-97.6 109.8-12.6 1.5-21.7 12.9-20.2 25.5s12.9 21.7 25.5 20.2C476.5 820.8 536 754 536 674.5c0-86.3-70.2-156.5-156.5-156.5z m-70.6 246.8c-7.7 0-15.2 3.8-19.5 10.8-6.7 10.8-3.5 25 7.3 31.7 9.4 5.9 19.5 10.8 29.9 14.5 12 4.3 25.1-1.9 29.4-13.9 4.3-12-1.9-25.1-13.9-29.4-7.4-2.6-14.5-6.1-21.1-10.2-3.7-2.4-7.9-3.5-12.1-3.5zM863-65H163c-35.8 0-65 29.2-65 65V189c0 35.8 29.2 65 65 65h700c35.8 0 65-29.2 65-65v-189c0-35.8-29.2-65-65-65zM163 208c-10.5 0-19-8.5-19-19v-189c0-10.5 8.5-19 19-19h700c10.5 0 19 8.5 19 19V189c0 10.5-8.5 19-19 19H163z"  horiz-adv-x="1024" />

    
    <glyph glyph-name="baogao" unicode="&#58890;" d="M756.622222 389.688889h-398.222222c-22.755556 0-39.822222 17.066667-39.822222 39.822222 0 22.755556 17.066667 39.822222 39.822222 39.822222h398.222222c22.755556 0 39.822222-17.066667 39.822222-39.822222 0-22.755556-17.066667-39.822222-39.822222-39.822222m0-204.8H273.066667c-22.755556 0-39.822222 17.066667-39.822223 39.822222s17.066667 39.822222 39.822223 39.822222h483.555555c22.755556 0 39.822222-17.066667 39.822222-39.822222s-17.066667-39.822222-39.822222-39.822222M898.844444 896H398.222222c-45.511111 0-85.333333-17.066667-113.777778-45.511111l-233.244444-227.555556C17.066667 588.8 0 548.977778 0 503.466667v-512C0-105.244444 130.844444-128 130.844444-128h768c113.777778 0 125.155556 130.844444 125.155556 130.844444V776.533333C1024 856.177778 898.844444 896 898.844444 896"  horiz-adv-x="1024" />

    
    <glyph glyph-name="jieshou" unicode="&#59078;" d="M534.1 99.6H230.6c-21.2 0-41.6 7.9-57.1 22.2l241.4 241.4 15.1-15.1c14.4-14.5 34.1-22.6 54.5-22.5 20.6 0 40 8 54.5 22.5l278.8 278.8c1.6-6.5 2.4-13.3 2.4-20v-163.2c0-12.8 10.4-23.2 23.2-23.2 12.8 0 23.2 10.4 23.2 23.2V606.9c0 72.3-58.8 131.1-131.1 131.1H230.6c-72.3 0-131.1-58.8-131.1-131.1v-422.6c0-72.3 58.8-131.1 131.1-131.1H534c12.8 0 23.2 10.4 23.2 23.2 0 12.8-10.3 23.2-23.1 23.2z m-385.4 63.1c-1.9 7.1-2.8 14.4-2.8 21.7V606.9c0 7.5 1 15 3 22.3L382.1 396 148.7 162.7z m586.7 528.9c21.7 0 42.5-8.3 58.2-23.2L506.2 380.9c-5.8-5.8-13.5-8.9-21.8-8.9s-16 3.2-21.8 8.9L173.9 669.8c15.5 14.1 35.8 21.9 56.8 21.9h504.7z m0 0M577.8 182.1l140.9-140.9c5.8-5.9 14.4-8.3 22.5-6.2 8 2.1 14.3 8.4 16.5 16.5 2.1 8-0.2 16.6-6.2 22.5L650.2 175.3h255.2c12.8 0 23.2 10.4 23.2 23.2 0 12.8-10.4 23.2-23.2 23.2H650.2L751.5 323c5.9 5.8 8.3 14.4 6.2 22.5-2.1 8.1-8.4 14.3-16.5 16.5-8.1 2.1-16.6-0.2-22.5-6.2l-140.9-141c-9-9-9-23.7 0-32.7z m0 0"  horiz-adv-x="1024" />

    
    <glyph glyph-name="sheji" unicode="&#58880;" d="M899.36 576.24c-15.84-15.84-27.18-15.84-43.08 0l-157.98 157.92c-15.84 15.9-15.84 27.3 0 43.14L762.92 841.92a40.68 40.68 0 0 0 57.48 0l143.58-143.64a40.62 40.62 0 0 0 0-57.48l-64.62-64.56z m-51.42-51.48l-458.34-458.4a20.4 20.4 0 0 0-28.74 0l-172.32 172.38a20.28 20.28 0 0 0 0 28.68l458.4 458.4a20.4 20.4 0 0 0 28.74 0L848 553.5c7.8-7.98 7.8-20.82-0.06-28.74zM266.18 412.62L202.1 476.04l120.18 120.9-31.2 31.38-120.42-121.2-57.84 57.3 120.48 121.26-31.14 31.32L81.38 595.5l-30.42 30.18a42.36 42.36 0 0 0-13.14 31.32c0 12.3 4.38 22.74 13.14 31.38L204.02 839.88a45.06 45.06 0 0 0 63.36 0l214.98-212.76-213.78-211.62c-0.9-0.9-1.56-1.92-2.4-2.88zM77.54-59.39999999999998l-16.2-5.58-4.2 4.14 5.52 16.26 14.88-14.82z m8.94 84.18l60.48-60.42-63.6-21.72-18.66 18.66 21.78 63.48z m7.32 21.36l66 192.6 201.06-201.12-192.54-66-74.52 74.52z m664.26 308.1l214.98-212.76a44.04 44.04 0 0 0 0-62.76l-153.06-151.44c-8.76-8.76-19.32-13.08-31.68-13.08s-22.92 4.32-31.62 13.08l-33.72 33.24 110.94 111.54-31.26 31.32-111.18-111.78-57.84 57.24 111.24 111.9-31.2 31.32-111.48-112.14-60.9 60.3c1.08 0.84 216.78 214.02 216.78 214.02z"  horiz-adv-x="1024" />

    
    <glyph glyph-name="chuli" unicode="&#59131;" d="M928.293056-59.701983h-68.233659v129.739025A344.898109 344.898109 0 0 1 655.285287 383.999634a340.217558 340.217558 0 0 1 197.972685 307.161166V827.701252h75.108218a32.251922 32.251922 0 0 1 34.080263 34.080263 36.566805 36.566805 0 0 1-34.153397 34.153396H95.593762A32.251922 32.251922 0 0 1 61.440366 861.781515a32.251922 32.251922 0 0 1 34.153396-34.080263H163.827421v-129.739026A344.898109 344.898109 0 0 1 368.601532 383.999634a340.217558 340.217558 0 0 1-197.972685-307.161166v-136.540451H95.593762a34.153396 34.153396 0 0 1 0-68.233659h832.699294a32.251922 32.251922 0 0 1 34.153397 34.153396 36.566805 36.566805 0 0 1-34.153397 34.080263z m-696.231976 757.664209V827.701252h552.890099v-129.739026a276.810718 276.810718 0 0 0-279.809196-279.809195 271.179429 271.179429 0 0 0-273.080903 279.809195z m6.801426-627.998317A275.348045 275.348045 0 0 0 511.943409 349.846238a281.125601 281.125601 0 0 0 279.882329-279.882329v-129.665892h-552.890098z"  horiz-adv-x="1024" />

    
    <glyph glyph-name="keti" unicode="&#59014;" d="M974.636138 589.294345L546.816 817.152c-13.241379 6.885517-37.817379 6.920828-50.529103 0L76.729379 589.435586l427.820138-227.857655c13.241379-6.885517 37.817379-6.920828 50.493793-0.03531l419.592828 227.787034z m41.171862 50.670345c21.821793-11.899586 34.356966-30.366897 34.356966-50.635035 0-19.915034-12.076138-38.135172-33.121104-49.964138l-431.704276-234.56662c-15.112828-8.474483-34.85131-13.135448-55.507862-13.135449-20.409379 0-40.324414 4.660966-56.072827 13.135449L34.427586 539.294897C12.535172 551.229793 0 569.661793 0 589.929931c0 19.950345 12.076138 38.135172 33.121103 49.999448L464.825379 874.46069c31.77931 17.44331 79.801379 17.44331 111.616 0l439.296-234.531311h0.070621zM1010.688 210.97931a32.132414 32.132414 0 0 0 19.208828-15.607172 32.061793 32.061793 0 0 0-12.923587-43.784828l-431.633655-234.53131c-14.689103-8.827586-34.462897-13.735724-55.507862-13.735724-20.44469 0-40.359724 4.660966-56.072827 13.135448L34.427586 151.022345a32.80331 32.80331 0 0 0-13.665103 43.608276 32.838621 32.838621 0 0 0 43.714207 13.771034l439.472551-234.566621c13.241379-6.885517 37.817379-6.920828 50.529104 0l431.633655 234.496a32.026483 32.026483 0 0 0 24.576 2.683587z m0 199.503449a32.132414 32.132414 0 0 0 19.208828-15.607173 32.061793 32.061793 0 0 0-12.923587-43.784827l-431.633655-234.531311c-14.689103-8.827586-34.462897-13.771034-55.507862-13.771034-20.44469 0-40.324414 4.696276-56.072827 13.170758L34.427586 350.455172a32.768 32.768 0 0 0-13.665103 43.643587 32.838621 32.838621 0 0 0 43.714207 13.771034l439.472551-234.601931c13.241379-6.850207 37.817379-6.885517 50.529104 0l431.633655 234.53131a32.061793 32.061793 0 0 0 24.576 2.648276z"  horiz-adv-x="1059" />

    
    <glyph glyph-name="renwushuchaxun" unicode="&#58918;" d="M233.354061 636.455584v-13.390759a25.993826 25.993826 0 0 1 25.59998-25.59998h505.698072a25.59998 25.59998 0 0 1 25.599981 25.59998v13.390759a96.098388 96.098388 0 0 1-96.098388 96.098388h-78.76917V790.843158a105.156842 105.156842 0 0 1-210.313684 0v-57.89534h-78.769171a96.886079 96.886079 0 0 1-92.94762-96.492234zM458.633887 706.953992V790.843158a53.759959 53.759959 0 0 0 107.519918 0v-83.495321a25.993826 25.993826 0 0 1 25.59998-25.59998h102.793767a45.686119 45.686119 0 0 0 42.929198-32.29536H286.917096a44.504581 44.504581 0 0 0 42.535352 31.901514h103.581459a25.993826 25.993826 0 0 1 25.59998 25.599981zM807.975157 817.23083h-98.461463a25.796903 25.796903 0 0 1 0-51.593807h98.461463a78.76917 78.76917 0 0 0 78.76917-78.76917v-684.504089a78.76917 78.76917 0 0 0-78.76917-78.76917h-590.768776a78.76917 78.76917 0 0 0-78.76917 78.76917V688.443237a78.76917 78.76917 0 0 0 78.76917 78.76917h98.461462A25.59998 25.59998 0 0 1 314.880152 817.23083h-98.461463A130.362977 130.362977 0 0 1 85.661867 687.655545v-685.291781A130.362977 130.362977 0 0 1 216.418689-127.999212h590.768776a130.362977 130.362977 0 0 1 130.362977 129.96913V688.443237A130.756822 130.756822 0 0 1 807.975157 817.23083zM511.803077 734.129355a30.326131 30.326131 0 1 1-30.32613 30.326131 29.538439 29.538439 0 0 1 9.058454-21.267676 30.719976 30.719976 0 0 1 21.267676-9.058455z m246.153657-441.501199H258.954041a25.796903 25.796903 0 1 1 0-51.593806h499.002693a25.796903 25.796903 0 1 1 0 51.593806z m0-194.166004H258.954041a25.796903 25.796903 0 1 1 0-51.593807h499.002693a25.796903 25.796903 0 1 1 0 51.593807z m0 388.725855H258.954041a25.796903 25.796903 0 1 1 0-51.593807h499.002693a25.796903 25.796903 0 1 1 0 51.593807z"  horiz-adv-x="1024" />

    
    <glyph glyph-name="jinzhan" unicode="&#58883;" d="M0.128994 383.943633c0 23.262893-0.095995 46.525785 0 69.756679 0.191991 45.757822 31.134518 76.604354 76.700349 76.604354 46.749775 0 93.531548 0.031998 140.281323 0 42.333985-0.031998 74.300463-29.534594 75.228419-71.868579 1.087948-49.533642 1.05595-99.099283 0-148.632925-0.895957-42.301987-32.926433-72.092569-75.036428-72.124567-47.26175-0.031998-94.555499-0.031998-141.81725 0-43.197944 0.031998-74.812439 31.038523-75.324415 74.204468-0.287986 24.030856-0.031998 48.061712-0.031998 72.06057z m73.500501 72.956527v-145.465076h145.273086V456.90016H73.629495zM0.128994 18.201041c0 23.518881-0.127994 47.005763 0.031998 70.524643 0.255988 45.021857 31.5185 75.900387 76.668351 75.900388 46.525785 0 93.019572 0.031998 139.51336 0 44.1259-0.031998 75.83639-30.814533 76.25237-74.972432 0.447979-47.517738 0.41598-95.067475 0-142.585213-0.383982-44.221895-31.966478-75.068427-76.06038-75.068427-47.005763 0.031998-94.011525 0.031998-141.017287 0.063997-43.325938 0.031998-74.780441 30.87853-75.324415 74.108473-0.319985 23.998858-0.063997 48.029714-0.063997 72.028571z m218.677591-72.732538V91.157569H73.693492V-54.531497h145.113093z m494.56846 401.996866H442.699929c-18.687111 0-31.422504 7.77563-37.566212 22.718919-8.895577 21.63097 4.287796 45.661827 27.326699 49.661636 3.711823 0.63997 7.551641 0.863959 11.295462 0.863959 179.703447 0.031998 359.374895 0.031998 539.078341 0.031998 22.302938 0 36.894244-11.13547 40.606068-30.814533 3.551831-18.847103-9.791534-38.270178-28.830628-41.566022-4.447788-0.767963-9.055569-0.83196-13.599353-0.83196-89.211754-0.095995-178.455506-0.063997-267.635261-0.063997z m0.255988-292.562075c89.979717 0 179.927436 0.031998 269.907153 0 19.871054 0 34.174373-9.727537 38.910148-26.270749 6.143708-21.310986-7.391648-42.717967-29.4066-46.269798-3.455836-0.543974-7.039665-0.703966-10.559498-0.703967-179.703447-0.031998-359.374895-0.031998-539.078341-0.031998-21.43898 0-35.742299 10.207514-40.190087 28.542641-4.927765 20.351031 9.119566 41.150041 29.918576 44.029905 3.967811 0.543974 8.063616 0.63997 12.095424 0.639969 89.49974 0.095995 178.967482 0.063997 268.403225 0.063997z m-0.287986 658.43266H441.931965c-18.879101 0-32.446456 8.927575-37.726204 24.670826-7.711633 22.942908 8.127613 46.365793 32.702443 48.3177 2.271892 0.191991 4.543784 0.127994 6.815676 0.127994h539.078341c22.302938 0 36.894244-11.103472 40.606067-30.814533 3.711823-19.74306-11.071473-39.774107-31.070521-41.918005-3.487834-0.383982-7.071663-0.351983-10.591496-0.351983-89.467742-0.031998-178.935483-0.031998-268.403224-0.031999z m-602.883305 15.647256c14.431313 14.527309 28.638637 28.894625 42.909958 43.197943 36.958241 36.990239 73.94848 74.012477 110.970718 110.970719 16.351222 16.351222 38.942146 17.151184 53.949432 2.079901 14.783296-14.91129 14.07933-37.40622-1.951907-53.437457a157399.026175 157399.026175 0 0 0-179.031478-179.031478c-16.831199-16.831199-38.206181-16.831199-55.037381-0.127994a20750.544323 20750.544323 0 0 0-70.332652 70.108663c-15.391267 15.487263-15.807248 38.23818-1.119947 52.861484 14.847293 14.783296 36.990239 14.367316 52.829486-1.215943 14.943289-14.719299 29.758584-29.566593 44.637875-44.349889 0.319985-0.319985 0.863959-0.41598 2.175896-1.055949z m0 0"  horiz-adv-x="1024" />

    
    <glyph glyph-name="pingfen" unicode="&#58895;" d="M912.64 512l-258.56 38.4-114.346667 244.48a30.293333 30.293333 0 0 1-55.04 0L369.92 550.826667 111.36 512a30.72 30.72 0 0 1-17.066667-51.626667l188.16-193.706666-42.666666-270.933334a30.293333 30.293333 0 0 1 42.666666-31.573333l229.12 128 229.12-128a30.293333 30.293333 0 0 1 44.8 31.573333l-42.666666 271.36 188.586666 193.28A30.72 30.72 0 0 1 912.64 512z"  horiz-adv-x="1024" />

    
    <glyph glyph-name="gonggong" unicode="&#58887;" d="M803.972538 49.713589a468.368771 468.368771 0 0 1 187.619112 374.572529A475.638146 475.638146 0 0 1 511.985969 895.983358 475.638146 475.638146 0 0 1 32.380289 424.286118a467.716391 467.716391 0 0 1 170.417586-360.699472 33.684101 33.684101 0 0 1 44.921011 50.206618A401.652949 401.652949 0 0 0 98.443731 424.286118 409.574704 409.574704 0 0 0 511.985969 829.906601a409.574704 409.574704 0 0 0 413.542238-405.620483 402.318642 402.318642 0 0 0-161.191071-321.716449 33.031721 33.031721 0 1 1 39.635402-52.842766zM749.146005 232.699472a287.366655 287.366655 0 0 1 58.128374 173.746055 297.272177 297.272177 0 1 1-594.544354 0 287.366655 287.366655 0 0 1 72.667124-191.586646 33.031721 33.031721 0 0 1 49.540925 43.602938 221.303212 221.303212 0 0 0-56.144607 147.318015 231.208735 231.208735 0 0 0 462.430783 0 221.303212 221.303212 0 0 0-44.92101-132.100258 33.031721 33.031721 0 0 1 52.842765-39.635402zM511.985969-128a52.483291 52.483291 0 0 0-37.744832 19.118723 199.628226 199.628226 0 0 0-34.616073 57.356169c-21.888009 50.739174-42.005272 127.919701-59.76598 229.398048a97.297791 97.297791 0 0 0 53.50846 90.534342h157.236851l5.139155-3.474921c30.142611-20.330285 48.342676-32.605677 47.70361-87.032794-17.534372-101.478347-37.478555-178.658874-59.28668-229.398047a199.055729 199.055729 0 0 0-34.46962-57.356169 52.363466 52.363466 0 0 0-37.704891-19.145351z m-58.128373 330.317212a26.627748 26.627748 0 0 1-7.988325-19.158664 1012.493484 1012.493484 0 0 1 54.174153-208.761544 226.788528 226.788528 0 0 1 11.88929-23.112885 225.616908 225.616908 0 0 1 11.902603 23.791893 1013.518653 1013.518653 0 0 1 54.214095 209.373981c0 12.674808 0 12.674808-5.525258 16.602401l-1.730804 1.23819h-116.935754z m58.807381 123.539436h-0.679008a103.049384 103.049384 0 0 0-70.496962 176.289005 102.410318 102.410318 0 0 0 72.467415 29.79645h0.226336a103.062698 103.062698 0 0 0 102.849676-102.383691 104.367458 104.367458 0 0 0-104.354143-103.715078z m-2.662775 139.995385h-0.612438a37.198964 37.198964 0 0 1-36.400132-36.946 38.170877 38.170877 0 0 1 38.290702-36.999256h0.692321a36.999256 36.999256 0 0 1-1.970453 73.931942z"  horiz-adv-x="1024" />

    
    <glyph glyph-name="gerenxinxi" unicode="&#58932;" d="M734.3616 492.544a249.856 249.856 0 0 1-499.6608 0 242.0736 242.0736 0 0 1 127.6928-216.4224A336.1792 336.1792 0 0 1 154.112 26.112a28.0064 28.0064 0 0 1 22.1696-33.1776h5.5296a27.0336 27.0336 0 0 1 27.648 22.1184 281.9584 281.9584 0 0 0 272.0768 227.6864h5.5296a251.8528 251.8528 0 0 1 247.296 249.856v-0.1024z m-444.16 0a194.304 194.304 0 0 0 388.6592 0 196.096 196.096 0 0 0-191.488-194.2528h-8.3968A197.4272 197.4272 0 0 0 290.2528 492.544z m385.8944-249.856a26.1632 26.1632 0 0 1 27.648-27.648h138.8032a27.648 27.648 0 1 1 0 55.3984h-138.8032a27.7504 27.7504 0 0 1-27.648-27.648v-0.0512z m166.5536-80.384H620.544a27.7504 27.7504 0 1 1 0-55.552h222.1056a27.7504 27.7504 0 0 1 0 55.552z m0-111.104h-219.3408a27.7504 27.7504 0 0 1 0-55.5008h219.2896a26.1632 26.1632 0 0 1 27.648 27.648c0 15.36-12.288 27.8016-27.648 27.8528z"  horiz-adv-x="1024" />

    
    <glyph glyph-name="shezhi" unicode="&#58891;" d="M917.930667 384c0 57.6 36.181333 106.496 86.869333 125.952a505.429333 505.429333 0 0 1-55.210667 133.461333A134.826667 134.826667 0 0 0 771.413333 821.589333 507.733333 507.733333 0 0 1 637.952 876.8 135.168 135.168 0 0 0 512 789.930667 134.912 134.912 0 0 0 386.048 876.8 505.429333 505.429333 0 0 1 252.586667 821.589333c22.186667-49.749333 13.141333-109.824-27.562667-150.528a135.168 135.168 0 0 0-150.528-27.648 502.016 502.016 0 0 1-55.296-133.461333c50.688-19.626667 86.869333-68.437333 86.869333-125.952 0-57.6-36.181333-106.496-86.869333-125.952 12.117333-47.530667 30.72-92.330667 55.210667-133.461333a134.826667 134.826667 0 0 0 178.090666-178.176 507.733333 507.733333 0 0 1 133.546667-55.210667A135.168 135.168 0 0 0 512-21.930667c57.6 0 106.496-36.181333 125.952-86.869333a505.429333 505.429333 0 0 1 133.461333 55.210667 134.912 134.912 0 0 0 27.562667 150.528 135.168 135.168 0 0 0 150.528 27.648 502.016 502.016 0 0 1 55.296 133.461333A134.912 134.912 0 0 0 917.930667 384zM512 248.661333a135.338667 135.338667 0 1 0 0.085333 270.762667A135.338667 135.338667 0 0 0 512 248.661333z"  horiz-adv-x="1024" />

    
    <glyph glyph-name="baogao1" unicode="&#58900;" d="M326.9 621.6c-19.3 0-35 15.7-35 35v130c0 19.2 15.7 35 35 35 19.2 0 35-15.7 35-35v-130c0-19.2-15.8-35-35-35zM455.9 621.6c-19.3 0-35 15.7-35 35v130c0 19.2 15.7 35 35 35 19.2 0 35-15.7 35-35v-130c0-19.2-15.8-35-35-35zM584.9 621.6c-19.3 0-35 15.7-35 35v130c0 19.2 15.8 35 35 35 19.3 0 35-15.7 35-35v-130c0-19.2-15.8-35-35-35zM713.9 621.6c-19.3 0-35 15.7-35 35v130c0 19.2 15.8 35 35 35 19.3 0 35-15.7 35-35v-130c0-19.2-15.8-35-35-35zM717.6 483.9c0 13.8-11.3 25-25 25H348.1c-13.7 0-25-11.3-25-25 0-13.8 11.3-25 25-25h344.6c13.7 0 24.9 11.3 24.9 25zM717.6 358.9c0 13.8-11.3 25-25 25H348.1c-13.7 0-25-11.3-25-25 0-13.8 11.3-25 25-25h344.6c13.7 0 24.9 11.3 24.9 25zM717.6 233.9c0 13.8-11.3 25-25 25H348.1c-13.7 0-25-11.3-25-25 0-13.8 11.3-25 25-25h344.6c13.7 0 24.9 11.3 24.9 25zM843.7 758.9H197c-14.7 0-26.7-12-26.7-26.6v-746.7c0-14.7 12-26.6 26.7-26.6h646.7c14.7 0 26.7 12 26.7 26.6V732.3c0 14.6-12 26.6-26.7 26.6z m-43.3-703.3c0-14.7-12-26.6-26.7-26.6H267c-14.7 0-26.7 12-26.7 26.6V662.3c0 14.7 12 26.6 26.7 26.6h506.7c14.7 0 26.7-12 26.7-26.6v-606.7z"  horiz-adv-x="1024" />

    
    <glyph glyph-name="shanchu" unicode="&#59010;" d="M413 626.5c-22 0-40-18-40-40v-486.1c0-22 18-40 40-40s40 18 40 40V586.5c0 22-18 40-40 40zM611.5 626.5c-22 0-40-18-40-40v-486.1c0-22 18-40 40-40s40 18 40 40V586.5c0 22-18 40-40 40zM895.1 744.8H575.3c0.2 2.2 0.4 4.4 0.4 6.7v17.9c0 34.9-28.6 63.5-63.5 63.5s-63.5-28.6-63.5-63.5v-17.9c0-2.2 0.1-4.5 0.4-6.7H129.3c-22 0-40-18-40-40s18-40 40-40h43.8v-629.9c0-53.2 43.3-96.5 96.5-96.5h482c53.2 0 96.5 43.3 96.5 96.5V586.5c0 22-18 40-40 40s-40-18-40-40v-551.6c0-8.9-7.6-16.5-16.5-16.5h-482c-8.9 0-16.5 7.6-16.5 16.5V664.8h642.1c22 0 40 18 40 40-0.1 22-18.1 40-40.1 40z"  horiz-adv-x="1024" />

    
    <glyph glyph-name="xuesheng" unicode="&#58938;" d="M1119.223717 467.593625l-21.390528 24.533102a23.727014 23.727014 0 0 0-5.841215 15.584361V631.416335c27.967736 17.36009 72.045543 31.624337-28.306527 74.954468C948.695293 753.345852 746.647673 831.770002 644.870346 873.324404c-0.490662 0.198601-8.913694 3.901931-9.345943 4.088851-76.204488 31.799573-109.698014 18.201225-171.357877-6.495431-104.557745-39.206234-278.041824-110.983081-397.377842-155.902023-91.578565-33.960823-86.017729-59.346742-1.448622-99.382428 126.602489-60.000958 369.491883-152.175328 423.196012-172.152283s92.454748-20.105461 146.591126 4.030438c51.636339 23.014386 137.32696 52.173731 354.398184 141.07702a23.727014 23.727014 0 0 0 32.710803-21.951285v-57.430824a23.727014 23.727014 0 0 0-6.063181-15.841374l-23.750379-26.58921a23.727014 23.727014 0 0 1 1.343479-33.061276l43.049753-51.239136a23.727014 23.727014 0 0 1 31.857985-0.712628l48.201705 52.302237a23.727014 23.727014 0 0 1 2.348168 33.528573zM941.019936 401.108918c-93.961781-36.367403-235.400956-91.321552-293.485996-111.999452-79.604075-28.329892-101.508631-18.072719-166.22929 1.460303-89.475728 27.009777-220.318939 82.302716-296.406603 108.728373a23.212988 23.212988 0 0 1-30.806567-21.939603v-369.281599a23.212988 23.212988 0 0 1 11.098308-19.860131c42.757692-26.180325 204.594389-116.216809 408.09063-116.216809 188.916569 0 346.535909 89.954708 388.417419 116.193445a23.212988 23.212988 0 0 1 10.911389 19.684893v371.501261a23.212988 23.212988 0 0 1-31.58929 21.729319z"  horiz-adv-x="1126" />

    
    <glyph glyph-name="edit" unicode="&#58904;" d="M849.042286 358.4a38.4 38.4 0 0 1-38.4-38.4c0-1.462857 0.146286-2.925714 0.219428-4.242286h-0.219428v-366.957714H76.8V682.642286h401.042286a38.4 38.4 0 1 1 0 76.8H76.8c-42.422857 0-76.8-34.377143-76.8-76.8V-51.2C0-93.622857 34.377143-128 76.8-128h733.842286c42.422857 0 76.8 34.377143 76.8 76.8V320a38.4 38.4 0 0 1-38.4 38.4zM1001.325714 788.992L916.626286 873.618286a77.092571 77.092571 0 0 1-108.836572-0.219429L384.219429 449.682286a34.084571 34.084571 0 0 1-7.314286-10.825143L270.555429 187.757714a33.792 33.792 0 0 1 7.314285-37.449143c8.996571-9.216 23.332571-13.312 37.522286-7.314285l251.172571 106.276571a35.328 35.328 0 0 1 10.898286 7.314286l423.643429 423.643428c29.988571 29.988571 30.208 78.848 0.219428 108.763429zM528.822857 316.781714l-146.505143-62.098285 62.025143 146.578285 297.398857 297.398857 84.48-84.48L528.822857 316.781714z m417.865143 417.865143l-66.121143-66.194286-84.48 84.48 66.121143 66.194286 0.219429 0.146286 84.48-84.48-0.219429-0.146286z"  horiz-adv-x="1024" />

    


  </font>
</defs>
</svg>
